<?xml version="1.0" encoding="UTF-8" standalone="no"?>
<!-- Created with Inkscape (http://www.inkscape.org/) -->

<svg
   width="135.26799mm"
   height="135.26799mm"
   viewBox="0 0 135.26799 135.26799"
   version="1.1"
   id="svg5"
   xml:space="preserve"
   inkscape:export-filename="github logo.svg"
   inkscape:export-xdpi="95.9"
   inkscape:export-ydpi="95.9"
   xmlns:inkscape="http://www.inkscape.org/namespaces/inkscape"
   xmlns:sodipodi="http://sodipodi.sourceforge.net/DTD/sodipodi-0.dtd"
   xmlns="http://www.w3.org/2000/svg"
   xmlns:svg="http://www.w3.org/2000/svg"><sodipodi:namedview
     id="namedview7"
     pagecolor="#ffffff"
     bordercolor="#666666"
     borderopacity="1.0"
     inkscape:showpageshadow="2"
     inkscape:pageopacity="0.0"
     inkscape:pagecheckerboard="0"
     inkscape:deskcolor="#d1d1d1"
     inkscape:document-units="mm"
     showgrid="false" /><defs
     id="defs2" /><g
     inkscape:label="Layer 1"
     inkscape:groupmode="layer"
     id="layer1"
     transform="translate(-168.33904,-377.32388)"><path
       style="fill:#000000;stroke-width:0.999999"
       d="m 229.7552,512.34617 -2.38129,-0.24555 -3.04276,-0.52008 -3.04276,-0.52006 -3.37912,-0.93181 -3.37915,-0.93178 -3.04882,-1.19211 -3.04884,-1.19213 -3.0972,-1.58091 -3.09719,-1.58091 -2.35802,-1.48255 -2.35799,-1.48255 -2.40459,-1.81903 -2.40457,-1.81903 -2.31708,-2.13139 -2.31711,-2.13137 -2.13139,-2.3171 -2.13137,-2.31709 -1.81903,-2.40456 -1.81903,-2.4046 -1.49216,-2.35799 -1.49213,-2.35802 -1.94861,-3.96881 -1.94861,-3.96882 -0.92947,-2.5363 -0.92947,-2.53629 -0.93902,-3.54925 -0.93903,-3.54922 -0.57653,-3.70422 -0.57653,-3.70422 v -6.21783 -6.21782 l 0.57653,-3.70422 0.57653,-3.70425 0.93903,-3.54922 0.93902,-3.54922 0.92947,-2.5363 0.92947,-2.5363 1.94861,-3.96881 1.94861,-3.96884 1.49213,-2.35799 1.49216,-2.35802 1.81903,-2.40457 1.81903,-2.40457 2.13137,-2.3171 2.13139,-2.31708 2.31711,-2.13139 2.31708,-2.13139 2.40457,-1.81903 2.40459,-1.81903 2.35799,-1.49214 2.35802,-1.49216 3.96881,-1.9486 3.96882,-1.94859 2.5363,-0.92947 2.53629,-0.92948 3.54925,-0.93903 3.54922,-0.93902 3.70422,-0.57653 3.70422,-0.57653 h 6.21783 6.21782 l 3.70423,0.57653 3.70424,0.57653 3.54922,0.93902 3.54922,0.93903 2.5363,0.92948 2.5363,0.92947 3.96881,1.94859 3.96884,1.9486 2.35799,1.49216 2.35802,1.49214 2.40457,1.81903 2.40457,1.81903 2.3171,2.13139 2.31708,2.13139 2.13139,2.31708 2.13137,2.3171 1.81905,2.40457 1.81903,2.40457 1.49214,2.35802 1.49216,2.35799 1.94858,3.96884 1.94861,3.96881 0.92947,2.5363 0.92948,2.5363 0.93903,3.54922 0.93902,3.54922 0.57653,3.70425 0.57653,3.70422 v 6.21782 6.21783 l -0.57653,3.70422 -0.57653,3.70422 -0.93902,3.54922 -0.93903,3.54925 -0.92948,2.53629 -0.92947,2.5363 -1.94861,3.96882 -1.94858,3.96881 -1.49216,2.35802 -1.49214,2.35799 -1.81903,2.4046 -1.81905,2.40456 -2.13137,2.31709 -2.13139,2.3171 -2.31708,2.13137 -2.3171,2.13139 -2.40457,1.81903 -2.40457,1.81903 -2.35802,1.49216 -2.35799,1.49213 -3.96884,1.94861 -3.96881,1.94861 -2.54405,0.93238 -2.54404,0.93235 -3.59213,0.94501 -3.59213,0.94498 -3.52128,0.53156 -3.52129,0.53157 -5.15946,0.1034 -5.15948,0.10339 z m 39.8205,-62.69541 v -25.40287 l -5.09332,4.05038 -5.09332,4.0504 -10.31892,8.19467 -10.31894,8.1947 -0.79375,0.51125 -0.79378,0.51128 -1.32293,-0.0251 -1.32295,-0.0251 -0.66147,-0.26241 -0.66146,-0.26244 -15.61069,-11.83418 -15.61069,-11.8342 -0.33073,-0.26783 -0.33074,-0.26783 v 25.03595 25.03598 h 34.13184 34.13185 v -25.40288 z m -18.21149,-22.89679 15.05251,-11.89411 -15.48644,-0.0683 -15.48643,-0.0683 -15.47588,0.0683 -15.4759,0.0683 15.65169,11.98015 15.6517,11.98015 0.25811,-0.0861 0.25813,-0.0861 z"
       id="path469" /></g></svg>
