<?xml version="1.0" encoding="UTF-8" standalone="no"?>
<!-- Created with Inkscape (http://www.inkscape.org/) -->

<svg
   width="135.26799mm"
   height="135.26799mm"
   viewBox="0 0 135.26799 135.26799"
   version="1.1"
   id="svg5"
   xml:space="preserve"
   xmlns:inkscape="http://www.inkscape.org/namespaces/inkscape"
   xmlns:sodipodi="http://sodipodi.sourceforge.net/DTD/sodipodi-0.dtd"
   xmlns="http://www.w3.org/2000/svg"
   xmlns:svg="http://www.w3.org/2000/svg"><sodipodi:namedview
     id="namedview7"
     pagecolor="#ffffff"
     bordercolor="#666666"
     borderopacity="1.0"
     inkscape:showpageshadow="2"
     inkscape:pageopacity="0.0"
     inkscape:pagecheckerboard="0"
     inkscape:deskcolor="#d1d1d1"
     inkscape:document-units="mm"
     showgrid="false" /><defs
     id="defs2" /><g
     inkscape:label="Layer 1"
     inkscape:groupmode="layer"
     id="layer1"
     transform="translate(-219.52363,-187.94409)"><path
       style="fill:#000000;stroke:none;stroke-width:1"
       d="m 262.92031,319.2711 c -9.60542,-3.65763 -18.46408,-9.59518 -25.58863,-17.15089 -2.63612,-2.79566 -4.37902,-5.02589 -7.00192,-8.95975 -14.40663,-21.60725 -14.40837,-50.47934 -0.004,-72.10265 2.75157,-4.13065 4.95648,-6.8006 8.70711,-10.54353 10.17197,-10.15103 22.09934,-16.30252 36.78962,-18.97405 3.56213,-0.6478 4.37565,-0.69769 11.37708,-0.69769 7.00144,0 7.81495,0.0499 11.37709,0.69769 7.51697,1.36701 13.86598,3.48444 20.03229,6.68088 19.42044,10.06701 32.38921,28.17914 35.7076,49.86914 0.5689,3.71847 0.64408,13.44239 0.13195,17.06561 -2.07574,14.6853 -8.02569,27.11275 -17.90347,37.39429 -3.72478,3.87704 -7.03726,6.64626 -11.49649,9.61101 -5.52572,3.67382 -14.39683,7.77778 -17.49838,8.09512 -1.38841,0.14206 -2.67571,-0.38978 -3.21097,-1.3266 -0.25422,-0.44493 -0.37724,-3.52606 -0.49376,-12.36653 -0.13325,-10.10924 -0.22042,-11.99606 -0.61649,-13.3448 -0.61902,-2.10794 -1.82502,-4.44452 -2.91897,-5.6554 l -0.89701,-0.99287 3.64615,-0.5861 c 7.01879,-1.12824 12.90957,-3.43512 16.99423,-6.65508 4.71978,-3.72064 8.02951,-9.56205 9.34557,-16.49421 0.63641,-3.35224 0.93908,-9.01019 0.63894,-11.94398 -0.30775,-3.00805 -1.24546,-6.41669 -2.39328,-8.69977 -0.91105,-1.81211 -3.15551,-5.17149 -3.91344,-5.85741 -0.46996,-0.4253 -0.46863,-0.48987 0.0427,-2.08017 0.36208,-1.1261 0.57037,-2.68819 0.6636,-4.97684 0.14937,-3.66661 -0.10996,-5.71301 -1.13534,-8.95887 -0.59906,-1.89638 -0.71546,-2.07259 -1.46863,-2.22322 -2.86446,-0.5729 -9.70312,1.86569 -15.69635,5.59713 l -2.09683,1.30551 -1.36726,-0.35704 c -2.57001,-0.67113 -7.40098,-1.38869 -11.41695,-1.69582 -5.94912,-0.45496 -14.24319,0.26803 -19.61316,1.70968 l -1.40145,0.37624 -2.05737,-1.27603 c -6.01392,-3.72994 -13.03046,-6.23019 -15.88301,-5.65967 -0.75316,0.15063 -0.86956,0.32684 -1.46863,2.22322 -1.0269,3.25072 -1.28497,5.29122 -1.13306,8.95887 0.0975,2.35274 0.29515,3.79396 0.67095,4.89116 l 0.5328,1.55556 -1.67833,2.19965 c -1.96813,2.57947 -3.2575,5.14494 -4.24562,8.44757 -0.60017,2.00594 -0.73264,3.03393 -0.84053,6.52242 -0.25259,8.16712 1.20707,14.77335 4.47658,20.26042 2.0038,3.3629 6.38387,7.25091 10.49312,9.31432 3.37184,1.69313 9.46152,3.37709 14.01726,3.87616 l 1.66877,0.18281 -0.65882,0.69172 c -1.23234,1.29388 -2.5039,3.76175 -3.09908,6.01474 -0.56001,2.1199 -0.6474,2.26987 -1.54185,2.64609 -3.14096,1.32112 -7.97424,1.60667 -10.84006,0.64043 -3.24394,-1.09372 -5.40653,-2.91089 -7.81502,-6.56675 -2.43728,-3.69955 -5.87094,-6.1367 -9.475,-6.72517 -1.28164,-0.20927 -1.89779,-0.18899 -2.71603,0.0894 -1.98575,0.67561 -1.45388,1.91513 1.75355,4.08667 2.72176,1.84272 4.426,4.03573 6.64258,8.54763 1.51348,3.08073 2.19313,4.14971 3.55866,5.59724 2.84352,3.01428 6.54069,4.60178 11.46083,4.92105 2.21111,0.14349 6.3299,-0.17424 7.73906,-0.59699 0.43203,-0.12961 0.46302,0.28905 0.46302,6.25538 v 6.39429 l -0.89958,0.89958 c -0.80219,0.80219 -1.05284,0.89869 -2.31511,0.89137 -0.99121,-0.006 -2.22944,-0.31814 -4.13084,-1.04217 z"
       id="path302" /></g></svg>
